<svg xmlns="http://www.w3.org/2000/svg" width="61" height="64" viewBox="0 0 61 64" fill="none"><path d="M49.1486 63.7714C55.3784 63.7714 60.4286 58.7212 60.4286 52.4914C60.4286 46.2617 55.3784 41.2114 49.1486 41.2114C42.9189 41.2114 37.8687 46.2617 37.8687 52.4914C37.8687 58.7212 42.9189 63.7714 49.1486 63.7714Z" stroke="black" stroke-miterlimit="10" stroke-linecap="round" stroke-linejoin="round"></path><path d="M53.2284 49.0114C53.2284 49.0114 52.8684 47.2114 49.1484 47.2114C46.2684 47.2114 45.0684 48.7714 45.0684 50.2114C45.0684 51.5314 46.7484 52.6114 49.1484 52.6114C52.3884 52.6114 53.2284 53.6914 53.2284 55.0114C53.2284 56.8114 51.3084 58.0114 49.1484 58.0114C46.9884 58.0114 45.3084 56.8114 45.0684 56.2114" stroke="black" stroke-miterlimit="10" stroke-linecap="round" stroke-linejoin="round"></path><path d="M49.0288 45.7714V58.9714" stroke="black" stroke-miterlimit="10" stroke-linecap="round" stroke-linejoin="round"></path><path d="M47.8288 20.5714V7.37143H43.0288V14.5714" stroke="black" stroke-miterlimit="10" stroke-linecap="round" stroke-linejoin="round"></path><path d="M16.6284 20.5714H40.6284" stroke="black" stroke-miterlimit="10" stroke-linecap="round" stroke-linejoin="round"></path><path d="M1.38867 28.7314L28.6287 1.49142L55.8687 28.7314" stroke="black" stroke-miterlimit="10" stroke-linecap="round" stroke-linejoin="round"></path><path d="M50.2285 37.3714V28.9714" stroke="black" stroke-miterlimit="10" stroke-linecap="round" stroke-linejoin="round"></path><path d="M7.02881 28.9714V56.5714H31.0288V34.9714H40.6288V39.7714" stroke="black" stroke-miterlimit="10" stroke-linecap="round" stroke-linejoin="round"></path><path d="M23.8287 34.9714H15.4287V43.3714H23.8287V34.9714Z" stroke="black" stroke-miterlimit="10" stroke-linecap="round" stroke-linejoin="round"></path></svg>