<svg xmlns="http://www.w3.org/2000/svg" width="64" height="52" viewBox="0 0 64 52" fill="none"><path d="M38.5752 20.0091C38.5752 20.0091 37.9564 16.7945 31.5615 16.7945C26.6107 16.7945 24.5479 19.5805 24.5479 22.1522C24.5479 24.5096 27.4358 26.4384 31.5615 26.4384C37.1312 26.4384 38.5752 28.3671 38.5752 30.7245C38.5752 33.9391 35.2747 36.0822 31.5615 36.0822C27.8484 36.0822 24.9604 33.9391 24.5479 32.8676" stroke="black" stroke-miterlimit="10" stroke-linecap="round" stroke-linejoin="round"></path><path d="M31.562 14.1644V37.8356" stroke="black" stroke-miterlimit="10" stroke-linecap="round" stroke-linejoin="round"></path><path d="M49.3335 43.3333L53.3335 47.3333C59.3335 41.3333 62.6668 33.8666 62.6668 26C62.6668 18.1333 59.3335 10.6667 53.3335 4.66666" stroke="black" stroke-miterlimit="10" stroke-linejoin="round"></path><path d="M14.6668 8.66666L10.6668 4.66666C4.66683 10.6667 1.3335 18.1333 1.3335 26C1.3335 33.8666 4.66683 41.3333 10.6668 47.3333" stroke="black" stroke-miterlimit="10" stroke-linejoin="round"></path><path d="M32 0.666656C46 0.666656 57.3333 12 57.3333 26" stroke="black" stroke-miterlimit="10" stroke-linejoin="round"></path><path d="M32.0003 51.3333C18.0003 51.3333 6.66699 40 6.66699 26" stroke="black" stroke-miterlimit="10" stroke-linejoin="round"></path></svg>