<svg xmlns="http://www.w3.org/2000/svg" width="66" height="61" viewBox="0 0 66 61" fill="none"><path d="M14.5078 59.8504V36.8445" stroke="black" stroke-width="1.2" stroke-miterlimit="10" stroke-linecap="round" stroke-linejoin="round"></path><path d="M44.7681 36.8445V59.8504" stroke="black" stroke-width="1.2" stroke-miterlimit="10" stroke-linecap="round" stroke-linejoin="round"></path><path d="M11.7227 38.9562L29.536 23.9631L47.5529 38.9562" stroke="black" stroke-width="1.2" stroke-miterlimit="10" stroke-linecap="round" stroke-linejoin="round"></path><path d="M34.0338 59.8656V48.45H25.2422V59.8656" stroke="black" stroke-width="1.2" stroke-miterlimit="10" stroke-linecap="round" stroke-linejoin="round"></path><path d="M2.44482 59.8655H64.5834" stroke="black" stroke-width="1.2" stroke-miterlimit="10" stroke-linecap="round" stroke-linejoin="round"></path><path d="M39.4214 25.7408V12.5199C39.4214 11.8765 39.6787 11.2599 40.1362 10.8074L47.6144 3.40905C48.4236 2.60842 49.7267 2.60911 50.5351 3.41028" stroke="black" stroke-width="1.2" stroke-miterlimit="10" stroke-linecap="round" stroke-linejoin="round"></path><path d="M53.3414 6.19156L57.999 10.8076C58.4553 11.26 58.7121 11.8759 58.7121 12.5185V53.451H49.1094" stroke="black" stroke-width="1.2" stroke-miterlimit="10" stroke-linecap="round" stroke-linejoin="round"></path><path d="M48.8906 7.324C48.8906 7.324 49.1347 2.53583 55.2344 0.964661" stroke="black" stroke-width="1.2" stroke-miterlimit="10" stroke-linecap="round" stroke-linejoin="round"></path><path d="M46.0497 28.8041C46.2451 28.3292 46.7065 27.8263 47.4339 27.2957C48.0651 26.8338 48.4737 26.5029 48.6596 26.3031C48.9447 25.992 49.0873 25.6513 49.0873 25.2812C49.0873 24.9798 49.0056 24.7292 48.8422 24.5294C48.6787 24.3296 48.4449 24.2296 48.1405 24.2296C47.7239 24.2296 47.4402 24.3886 47.2897 24.7062C47.2032 24.8897 47.1519 25.1813 47.1359 25.5809H45.8045C45.8268 24.9749 45.9344 24.4851 46.1268 24.1117C46.4925 23.4009 47.142 23.0454 48.0754 23.0454C48.8131 23.0454 49.4001 23.2542 49.8364 23.672C50.2725 24.0896 50.4907 24.6423 50.4907 25.3303C50.4907 25.8577 50.3366 26.3262 50.0283 26.7355C49.8261 27.0075 49.4938 27.3104 49.0315 27.6446L48.4825 28.0426C48.1391 28.2916 47.904 28.4718 47.7774 28.583C47.6508 28.6945 47.5443 28.8238 47.4578 28.9713H50.5003V30.2045H45.7275C45.7405 29.6935 45.8478 29.2268 46.0497 28.8041Z" fill="black"></path><path d="M51.2959 30.2045L52.9429 28.1867L51.3667 26.2273H52.912L53.7181 27.3813L54.5057 26.2273H56.0066L54.4215 28.1683L56.0686 30.2044H54.497L53.6665 29.0065L52.8279 30.2044H51.2959V30.2045Z" fill="black"></path><path d="M5.92668 54.7977C2.98941 50.45 1.27441 45.2088 1.27441 39.5669C1.27441 24.5221 13.4705 12.326 28.5153 12.326C30.327 12.326 32.0972 12.5028 33.8099 12.8402" stroke="black" stroke-width="1.2" stroke-miterlimit="10" stroke-linecap="round" stroke-linejoin="round"></path></svg>